:SAMPLES-PER-SECOND 30
:FULLY-SPECIFIED
:DEGREES
370
root  -43.2097 34.2588 3.09981 -156.499 54.4941 -175.594
RightUpLeg  -23.0068 -33.7273 5.85606
RightLeg  19.0972 -13.4697 -3.67149
RightFoot  2.16415 0.0152276 -0.227746
RightToes  -33.6567 -0.184505 -0.285102
Spine  3.84049 1.30127 -1.2944
Spine1  7.42044 3.06426 -2.20908
HEad  -53.5746 2.02907 -4.03102
LeftShoulder1  -1.94126e-019 -3.10601e-018 -2.51263e-017
LeftArm  -1.99344 15.1657 -80.1097
LeftForeArm  32.9556 -45.6649 -9.09881
LeftHand  -0.598223 -3.6599 7.93099
RightShoulder  -4.96962e-017 0 -2.36833e-017
RightArm  -3.94182 -0.606496 82.3017
RightForeArm  45.8109 35.8695 5.35071
RightHand  -0.3812 -0.915169 -9.84153
LeftUpLeg  -37.8681 2.64965 -0.805429
LeftLeg  26.0267 11.3283 4.61238
LeftFoot  2.04492 -0.00871122 0.649663
LeftToes  -11.4676 2.40056e-006 -7.68412e-008
371
root  -43.3231 34.2331 3.03965 -156.026 54.696 -175.675
RightUpLeg  -23.4937 -32.9523 5.64687
RightLeg  19.0262 -12.9823 -3.52438
RightFoot  1.98237 0.0110417 -0.162998
RightToes  -34.281 -0.183703 -0.284222
Spine  3.87289 1.38201 -1.44164
Spine1  7.46595 3.2506 -2.50725
HEad  -52.7293 1.66585 -4.44616
LeftShoulder1  -1.94126e-019 -3.10601e-018 -2.51263e-017
LeftArm  -2.6999 14.3889 -79.7576
LeftForeArm  32.7456 -43.9294 -8.50795
LeftHand  -0.57672 -3.71177 7.6154
RightShoulder  -4.96962e-017 0 -2.36833e-017
RightArm  -1.86146 -0.888792 82.8827
RightForeArm  46.5464 37.6201 5.75717
RightHand  -0.396452 -0.761278 -9.91365
LeftUpLeg  -38.5829 2.9995 -1.23032
LeftLeg  26.18 11.095 4.55317
LeftFoot  1.96552 -0.00801861 0.629011
LeftToes  -11.2711 2.40056e-006 -7.68412e-008
372
root  -43.3877 34.2111 2.94162 -155.823 54.6284 -175.737
RightUpLeg  -23.7621 -33.2313 5.65999
RightLeg  18.9415 -12.771 -3.44813
RightFoot  1.83489 0.0082878 -0.11975
RightToes  -34.509 -0.182837 -0.283337
Spine  3.94948 1.38325 -1.4915
Spine1  7.61595 3.25593 -2.59874
HEad  -52.1353 1.19488 -4.8674
LeftShoulder1  -1.94126e-019 -3.10601e-018 -2.51263e-017
LeftArm  -4.35336 13.696 -79.622
LeftForeArm  32.3175 -41.3558 -7.70311
LeftHand  -0.567252 -3.63223 7.55597
RightShoulder  -4.96962e-017 0 -2.36833e-017
RightArm  -0.332191 -1.00149 83.628
RightForeArm  47.6382 37.538 5.67615
RightHand  -0.431765 -0.366504 -9.98998
LeftUpLeg  -38.9281 3.11059 -1.5439
LeftLeg  26.3372 10.8621 4.49358
LeftFoot  1.70213 -0.00519229 0.568413
LeftToes  -10.8684 2.40056e-006 -7.68412e-008
373
root  -43.4296 34.2109 2.8378 -155.594 54.7693 -175.744
RightUpLeg  -23.9044 -32.8857 5.56599
RightLeg  18.7647 -13.0419 -3.47697
RightFoot  1.80946 0.00864125 -0.122179
RightToes  -33.9473 -0.181922 -0.282466
Spine  3.95343 1.47069 -1.54304
Spine1  7.62701 3.42196 -2.67507
HEad  -51.793 0.478196 -5.26692
LeftShoulder1  -1.94126e-019 -3.10601e-018 -2.51263e-017
LeftArm  -6.62027 13.2683 -79.5475
LeftForeArm  31.7691 -38.4003 -6.862
LeftHand  -0.570755 -3.28746 7.88048
RightShoulder  -4.96962e-017 0 -2.36833e-017
RightArm  0.888946 -1.15062 84.3835
RightForeArm  48.4532 36.0164 5.24567
RightHand  -0.445468 -0.10616 -9.82343
LeftUpLeg  -39.1003 3.45705 -1.89054
LeftLeg  26.2916 10.6134 4.38237
LeftFoot  1.54291 -0.00393519 0.528876
LeftToes  -10.5905 2.40056e-006 -7.68412e-008
374
root  -43.449 34.2198 2.71892 -155.433 55.1227 -175.777
RightUpLeg  -23.9391 -32.4052 5.30248
RightLeg  18.5824 -13.2003 -3.47377
RightFoot  1.90152 0.0107212 -0.15079
RightToes  -33.7158 -0.180973 -0.281631
Spine  3.89902 1.5633 -1.59617
Spine1  7.52629 3.59513 -2.75023
HEad  -51.7402 -0.138218 -5.7652
LeftShoulder1  -1.94126e-019 -3.10601e-018 -2.51263e-017
LeftArm  -9.17679 13.3632 -79.3824
LeftForeArm  31.1988 -35.4686 -6.09829
LeftHand  -0.641646 -3.21459 8.89648
RightShoulder  -4.96962e-017 0 -2.36833e-017
RightArm  1.90901 -1.28335 85.0792
RightForeArm  49.2816 33.4816 4.59228
RightHand  -0.451319 0.168228 -9.48568
LeftUpLeg  -39.0831 3.57821 -2.14553
LeftLeg  26.1483 10.7573 4.4098
LeftFoot  1.40422 -0.00376246 0.504371
LeftToes  -10.1524 2.40056e-006 -7.68412e-008
375
root  -43.4536 34.2248 2.60648 -155.367 55.3041 -175.818
RightUpLeg  -23.8463 -32.1977 5.04701
RightLeg  18.3972 -13.2438 -3.43967
RightFoot  2.08501 0.0139415 -0.197445
RightToes  -34.0973 -0.180006 -0.280851
Spine  3.83883 1.62488 -1.59821
Spine1  7.41735 3.71633 -2.74031
HEad  -51.9779 -0.748428 -6.17863
LeftShoulder1  -1.94126e-019 -3.10601e-018 -2.51263e-017
LeftArm  -10.4521 13.6954 -78.9775
LeftForeArm  30.2308 -32.7043 -5.4546
LeftHand  -0.860035 -2.87929 12.2842
RightShoulder  -4.96962e-017 0 -2.36833e-017
RightArm  2.25462 -1.55075 85.5315
RightForeArm  50.6203 30.6633 3.89085
RightHand  -0.44649 0.424632 -8.99375
LeftUpLeg  -39.0307 3.25264 -2.20551
LeftLeg  26.1482 11.1987 4.58789
LeftFoot  1.29107 -0.00442415 0.492519
LeftToes  -9.71717 2.40056e-006 -7.68412e-008
376
root  -43.4307 34.2272 2.48665 -155.437 55.3903 -175.995
RightUpLeg  -23.6616 -32.2464 4.75779
RightLeg  18.1299 -13.1802 -3.35856
RightFoot  2.32393 0.0173497 -0.250457
RightToes  -34.5515 -0.179037 -0.280146
Spine  3.77267 1.6762 -1.59282
Spine1  7.28787 3.84102 -2.74001
HEad  -52.4471 -1.2697 -6.41032
LeftShoulder1  -1.94126e-019 -3.10601e-018 -2.51263e-017
LeftArm  -11.011 14.4823 -78.4256
LeftForeArm  29.0888 -30.7733 -5.05489
LeftHand  -1.07918 -2.20147 16.6414
RightShoulder  -4.96962e-017 0 -2.36833e-017
RightArm  1.93296 -1.94626 85.7142
RightForeArm  51.9137 27.6668 3.19547
RightHand  -0.442086 0.598796 -8.6621
LeftUpLeg  -38.8953 2.70107 -2.23176
LeftLeg  26.1276 11.7414 4.80148
LeftFoot  1.1856 -0.00525535 0.484493
LeftToes  -9.50591 2.40056e-006 -7.68412e-008
377
root  -43.39 34.2202 2.38512 -155.578 55.5315 -176.174
RightUpLeg  -23.425 -32.16 4.44121
RightLeg  17.9496 -13.2279 -3.32659
RightFoot  2.38896 0.0173525 -0.259369
RightToes  -34.2812 -0.178079 -0.279536
Spine  3.71209 1.74917 -1.59722
Spine1  7.14448 4.05146 -2.80536
HEad  -53.1416 -1.52176 -6.46539
LeftShoulder1  -1.94126e-019 -3.10601e-018 -2.51263e-017
LeftArm  -12.2962 15.5939 -77.879
LeftForeArm  28.1324 -30.0893 -4.94783
LeftHand  -1.08543 -1.18515 19.2233
RightShoulder  -4.96962e-017 0 -2.36833e-017
RightArm  1.01234 -2.38006 85.6758
RightForeArm  53.1116 24.6296 2.53229
RightHand  -0.636921 2.07025 -10.0849
LeftUpLeg  -38.7688 2.47844 -2.35725
LeftLeg  26.2457 12.036 4.94833
LeftFoot  0.924791 -0.00338592 0.437192
LeftToes  -9.10999 2.40056e-006 -7.68412e-008
